<?xml version="1.0" encoding="UTF-8"?>
<svg version="1.1" xmlns="http://www.w3.org/2000/svg" width="1024" height="1024">
<path d="M0 0 C1.06386429 -0.00095673 2.12772858 -0.00191345 3.22383118 -0.00289917 C5.46522074 -0.00357645 7.70661231 -0.00175383 9.94799805 0.00244141 C13.33582087 0.00776931 16.72350952 0.00249469 20.11132812 -0.00390625 C65.24838702 -0.02052596 65.24838702 -0.02052596 81.0949707 15.21044922 C83.94675861 18.43965187 85.94924395 21.6765889 88 25.44140625 C88.57968536 26.49004852 88.57968536 26.49004852 89.17108154 27.55987549 C93.24317235 35.01783401 96.86311856 42.67216076 100.42578125 50.3828125 C101.12119225 51.87525758 101.81716705 53.36744008 102.51367188 54.859375 C104.25217618 58.58723353 105.98346302 62.31838351 107.71166992 66.05102539 C109.15036041 69.15756218 110.59291779 72.26229629 112.03515625 75.3671875 C113.60518068 78.74840606 115.17445952 82.12995878 116.74121094 85.51269531 C121.01605491 94.73680617 125.34102223 103.93674578 129.67578125 113.1328125 C136.73229465 128.10679149 143.72988467 143.10714567 150.67578125 158.1328125 C151.00429077 158.84332764 151.33280029 159.55384277 151.67126465 160.28588867 C156.96519417 171.7365448 162.25094457 183.19096258 167.53076172 194.64813232 C168.28752339 196.29029708 169.04435803 197.93242822 169.80126953 199.57452393 C178.25283826 217.91051566 186.67784005 236.2572104 194.94824219 254.67578125 C200.78477174 267.65547219 206.83650046 280.51735074 213.05078125 293.3203125 C217.11838252 301.73910921 221.1346343 310.17618574 224.98828125 318.6953125 C225.36710449 319.52764404 225.74592773 320.35997559 226.13623047 321.2175293 C228.67578125 326.88597554 228.67578125 326.88597554 228.67578125 329.1328125 C229.33578125 329.4628125 229.99578125 329.7928125 230.67578125 330.1328125 C231.57910156 332.04443359 231.57910156 332.04443359 232.50390625 334.53125 C234.61763201 340.03517227 236.98540583 345.39216622 239.42578125 350.7578125 C239.83699219 351.66660156 240.24820313 352.57539063 240.671875 353.51171875 C241.67124704 355.71963372 242.6725674 357.92664119 243.67578125 360.1328125 C244.33578125 360.1328125 244.99578125 360.1328125 245.67578125 360.1328125 C245.86785156 361.32003906 246.05992187 362.50726563 246.2578125 363.73046875 C247.67620347 370.07187379 250.55891072 375.73677755 253.38143921 381.54647827 C255.0856119 385.05922563 256.75425486 388.5888187 258.42578125 392.1171875 C258.7736821 392.85015549 259.12158295 393.58312347 259.48002625 394.33830261 C263.05348554 401.88796059 266.50101258 409.49179046 269.88858032 417.12649536 C270.52901847 418.56796745 271.17230581 420.00817766 271.81869507 421.44699097 C281.06385863 442.04147748 287.6697887 462.71667318 279.79174805 484.88745117 C276.8761519 492.49297824 272.87393407 498.87009332 267.67578125 505.1328125 C266.99773438 505.98488281 266.3196875 506.83695313 265.62109375 507.71484375 C252.67674278 523.14849299 232.65964124 533.34403097 212.67578125 535.1328125 C208.8302971 535.27626645 204.98796134 535.27897365 201.1401062 535.27757263 C199.42345267 535.2828629 199.42345267 535.2828629 197.67211926 535.28826004 C193.8463501 535.29891429 190.02060588 535.30262235 186.19482422 535.30639648 C183.44791904 535.31214835 180.70101841 535.31941224 177.95411682 535.32666016 C172.04201454 535.34156688 166.12991348 535.35312605 160.21780014 535.36260796 C151.65471556 535.37651921 143.09166011 535.39771319 134.52859654 535.42103649 C120.61412332 535.45892101 106.69964483 535.49389071 92.78515625 535.52563477 C91.95298986 535.52753526 91.12082346 535.52943575 90.26343991 535.53139383 C78.46390969 535.55820417 66.66437535 535.58208658 54.86483659 535.60477883 C53.61931572 535.60717479 53.61931572 535.60717479 52.34863281 535.60961914 C51.51930449 535.61121261 50.68997616 535.61280607 49.83551668 535.61444782 C35.97896221 535.64126886 22.12243884 535.67568975 8.2659179 535.71627289 C-0.2687342 535.74096688 -8.80335295 535.75933863 -17.33803503 535.7694285 C-23.19372036 535.77685233 -29.04936084 535.79142777 -34.90501638 535.81149273 C-38.27688524 535.82281682 -41.64861995 535.82992968 -45.02051735 535.83048439 C-61.27421199 535.83531561 -76.67185963 536.09434221 -92.38671875 540.6953125 C-93.27246582 540.9543335 -94.15821289 541.21335449 -95.07080078 541.48022461 C-127.26076462 551.25999378 -155.43594863 570.08232247 -181.32421875 591.1328125 C-181.95779297 591.6469873 -182.59136719 592.16116211 -183.24414062 592.69091797 C-185.94934518 594.8874121 -188.65329993 597.08540539 -191.35327148 599.28833008 C-195.74476999 602.86743597 -200.1730403 606.39423633 -204.63671875 609.8828125 C-210.60320327 614.54902632 -216.48228616 619.3111398 -222.32421875 624.1328125 C-223.61183514 625.1928833 -224.89960668 626.25276567 -226.1875 627.3125 C-230.56785551 630.91751271 -234.94616398 634.52500629 -239.32421875 638.1328125 C-261.78657129 656.64327417 -261.78657129 656.64327417 -269.9453125 663.2578125 C-275.75373351 667.97873524 -281.45983814 672.80346782 -287.12988281 677.68847656 C-291.54710154 681.48675276 -296.0313622 685.1925822 -300.55859375 688.859375 C-302.52941372 690.47945582 -304.47343347 692.11297081 -306.40234375 693.78125 C-334.13073842 717.74864609 -334.13073842 717.74864609 -353.32421875 717.1328125 C-360.13609142 716.12076285 -365.99500395 713.63402468 -370.32421875 708.1328125 C-373.15637413 703.00071887 -373.74271693 699.24004829 -372.14282227 693.5078125 C-370.39843753 688.4468597 -368.05355251 683.65133729 -365.76171875 678.8203125 C-365.18917183 677.60059336 -364.61699767 676.38069917 -364.04516602 675.16064453 C-359.0248573 664.48392109 -353.84755811 653.88272801 -348.67456055 643.27941895 C-343.78242413 633.24971198 -338.95303481 623.19567086 -334.26171875 613.0703125 C-333.50169556 611.43811768 -333.50169556 611.43811768 -332.72631836 609.77294922 C-332.04581421 608.2939917 -332.04581421 608.2939917 -331.3515625 606.78515625 C-330.95702881 605.92913818 -330.56249512 605.07312012 -330.15600586 604.19116211 C-329.19932925 602.1937698 -329.19932925 602.1937698 -329.32421875 600.1328125 C-328.66421875 600.1328125 -328.00421875 600.1328125 -327.32421875 600.1328125 C-327.05762451 599.27977539 -326.79103027 598.42673828 -326.51635742 597.54785156 C-325.29912774 594.06093599 -323.84458013 590.82252835 -322.25 587.4921875 C-321.65924928 586.24491285 -321.06876193 584.99751343 -320.47851562 583.75 C-319.55325121 581.80410346 -318.62551853 579.85947896 -317.69311523 577.91699219 C-316.78844365 576.02861154 -315.89358118 574.13583563 -315 572.2421875 C-314.46286377 571.11780273 -313.92572754 569.99341797 -313.37231445 568.83496094 C-312.85350708 567.49739746 -312.85350708 567.49739746 -312.32421875 566.1328125 C-312.65421875 565.4728125 -312.98421875 564.8128125 -313.32421875 564.1328125 C-312.33421875 564.1328125 -311.34421875 564.1328125 -310.32421875 564.1328125 C-309.94293823 562.89265381 -309.94293823 562.89265381 -309.55395508 561.62744141 C-308.16442933 557.67872757 -306.46081507 553.98691823 -304.6484375 550.21875 C-304.28728348 549.46034821 -303.92612946 548.70194641 -303.55403137 547.92056274 C-302.77935215 546.29448558 -302.00315789 544.66912948 -301.22558594 543.04443359 C-299.16143034 538.73096284 -297.10862882 534.41209132 -295.0546875 530.09375 C-294.64447357 529.23199158 -294.23425964 528.37023315 -293.81161499 527.48236084 C-290.43681213 520.38663018 -287.11741544 513.26682416 -283.82421875 506.1328125 C-278.74489246 495.14249537 -273.57808632 484.19553645 -268.38671875 473.2578125 C-258.09209104 451.56430958 -247.92006159 429.81638683 -237.88378906 408.00195312 C-235.12375881 402.00863893 -232.34101564 396.0266405 -229.53515625 390.0546875 C-228.8906075 388.68099779 -228.24607616 387.30729992 -227.6015625 385.93359375 C-226.36041109 383.2886311 -225.11496696 380.64574725 -223.8671875 378.00390625 C-223.29801711 376.79174177 -222.72899915 375.5795057 -222.16015625 374.3671875 C-221.6604834 373.30725586 -221.16081055 372.24732422 -220.64599609 371.15527344 C-219.34869072 368.18877168 -218.32049982 365.21122759 -217.32421875 362.1328125 C-216.45727899 360.39893299 -215.57744996 358.67150954 -214.6953125 356.9453125 C-214.05062959 355.67455609 -213.40610441 354.40371966 -212.76171875 353.1328125 C-212.43236328 352.49085938 -212.10300781 351.84890625 -211.76367188 351.1875 C-209.93823941 347.82914318 -209.93823941 347.82914318 -209.32421875 344.1328125 C-208.66421875 344.1328125 -208.00421875 344.1328125 -207.32421875 344.1328125 C-207.06012207 343.29218262 -206.79602539 342.45155273 -206.52392578 341.58544922 C-205.25086295 337.92170186 -203.73868609 334.41432744 -202.12890625 330.890625 C-201.81776886 330.20459198 -201.50663147 329.51855896 -201.18606567 328.81173706 C-200.5268925 327.36047119 -199.86620827 325.90989081 -199.20410156 324.45996094 C-198.21884552 322.30082354 -197.23992052 320.13890324 -196.26171875 317.9765625 C-193.05085267 310.90795868 -189.74799088 303.90399162 -186.2421875 296.9765625 C-182.50280474 289.587254 -179.09499716 282.08906376 -175.76171875 274.5078125 C-172.05251907 266.07905445 -168.19249915 257.77624464 -164.03637695 249.55810547 C-161.30598657 244.09576737 -158.75338377 238.55419513 -156.19921875 233.0078125 C-155.35752201 231.18758479 -154.51582162 229.36735876 -153.67391968 227.54722595 C-152.80605517 225.67029106 -151.939096 223.79294002 -151.07226562 221.91552734 C-148.76445366 216.91908541 -146.44665311 211.92728973 -144.12817383 206.93579102 C-143.02026654 204.55001247 -141.91331252 202.16379099 -140.80737305 199.77709961 C-138.54234093 194.89127666 -136.27335185 190.00833131 -133.953125 185.1484375 C-133.61716309 184.44178955 -133.28120117 183.7351416 -132.93505859 183.00708008 C-132.09421682 181.24335776 -131.246688 179.48282738 -130.3984375 177.72265625 C-129.13265325 175.13826377 -129.13265325 175.13826377 -129.32421875 172.1328125 C-128.66421875 172.1328125 -128.00421875 172.1328125 -127.32421875 172.1328125 C-127.06697021 171.29991699 -126.80972168 170.46702148 -126.54467773 169.60888672 C-125.2012392 165.78254588 -123.54925436 162.16560047 -121.796875 158.515625 C-121.27907974 157.42589386 -121.27907974 157.42589386 -120.75082397 156.31414795 C-120.01326827 154.7624481 -119.27425573 153.21144002 -118.53390503 151.66107178 C-116.60443583 147.61899522 -114.68759567 143.57093504 -112.76953125 139.5234375 C-112.3888298 138.72070404 -112.00812836 137.91797058 -111.6158905 137.09091187 C-108.2933489 130.08044606 -105.00713549 123.0543416 -101.76171875 116.0078125 C-101.3035376 115.02055176 -100.84535645 114.03329102 -100.37329102 113.01611328 C-99.75925415 111.67782471 -99.75925415 111.67782471 -99.1328125 110.3125 C-98.78017334 109.54663574 -98.42753418 108.78077148 -98.06420898 107.99169922 C-97.20093397 106.15657612 -97.20093397 106.15657612 -97.32421875 104.1328125 C-96.66421875 104.1328125 -96.00421875 104.1328125 -95.32421875 104.1328125 C-94.93967529 102.88612793 -94.93967529 102.88612793 -94.54736328 101.61425781 C-93.1918607 97.7560808 -91.52196694 94.1098596 -89.75390625 90.4296875 C-89.22366348 89.31465347 -89.22366348 89.31465347 -88.68270874 88.17709351 C-87.52490555 85.7440489 -86.36227709 83.31334888 -85.19921875 80.8828125 C-83.56503825 77.45898485 -81.93269993 74.03428121 -80.30078125 70.609375 C-79.67907043 69.30581558 -79.67907043 69.30581558 -79.0447998 67.97592163 C-76.25422994 62.11549416 -73.50705176 56.23634696 -70.78515625 50.34375 C-70.06804041 48.79712201 -69.35075855 47.25057097 -68.63330078 45.70410156 C-67.61303344 43.50490244 -66.59561752 41.3046585 -65.58831787 39.0994873 C-62.15311889 31.58254588 -58.78447036 24.43612618 -53.32421875 18.1328125 C-52.79908691 17.5126123 -52.27395508 16.89241211 -51.73291016 16.25341797 C-38.90356246 1.57609918 -18.18782285 -0.03669458 0 0 Z M5.67578125 204.1328125 C3.77667042 207.21193551 3.77667042 207.21193551 2.11328125 210.7578125 C1.61683105 211.77621216 1.61683105 211.77621216 1.11035156 212.81518555 C-3.77610815 222.97393629 -8.2530849 233.32888728 -12.79052734 243.64648438 C-15.14587097 249.00056062 -17.51385739 254.34897979 -19.88671875 259.6953125 C-20.60601563 261.31638916 -20.60601563 261.31638916 -21.33984375 262.97021484 C-26.03470934 273.52619604 -30.80522188 284.04766451 -35.57421875 294.5703125 C-43.35487629 311.74055254 -51.07622151 328.93578611 -58.69090271 346.18032837 C-60.61548011 350.53763922 -62.55589832 354.88748856 -64.50390625 359.234375 C-65.42359636 361.30450128 -66.34289999 363.37479933 -67.26171875 365.4453125 C-67.66914307 366.34596436 -68.07656738 367.24661621 -68.49633789 368.17456055 C-70.56819997 372.87801242 -72.02874321 376.97840589 -72.32421875 382.1328125 C-70.5812902 386.39330451 -68.3606595 388.07923051 -64.32421875 390.1328125 C-61.44239719 390.70405225 -61.44239719 390.70405225 -58.36283875 390.81222534 C-57.21429098 390.87651608 -56.06574322 390.94080681 -54.88239098 391.00704575 C-49.15492122 391.20948825 -43.43709431 391.27195081 -37.70629883 391.26220703 C-36.41348495 391.26395935 -35.12067108 391.26571167 -33.78868103 391.26751709 C-30.28474915 391.27202453 -26.78084715 391.27033015 -23.27691483 391.267138 C-19.58741576 391.26458106 -15.89791899 391.26696099 -12.2084198 391.26852417 C-6.01955716 391.27033553 0.16929348 391.26796608 6.3581543 391.26318359 C13.48994378 391.25773574 20.62170469 391.25951161 27.75349349 391.26501 C33.90672968 391.26956204 40.05995733 391.27018168 46.21319467 391.26757133 C49.87532635 391.26602097 53.53744463 391.26578064 57.19957542 391.26910782 C61.28174889 391.27255872 65.36387378 391.26776272 69.44604492 391.26220703 C70.64266754 391.26423126 71.83929016 391.26625549 73.07217407 391.26834106 C86.79710497 391.79788386 86.79710497 391.79788386 98.67578125 386.1328125 C100.77051316 383.58270409 100.6765171 382.09307672 100.73828125 378.7578125 C99.9112175 373.29510747 97.05457091 368.59222909 94.46484375 363.79296875 C93.13302973 361.2247972 92.16491265 358.70349886 91.30371094 355.94287109 C89.78585735 351.30605267 87.89793139 346.93077585 85.83984375 342.51171875 C85.4786142 341.72691635 85.11738464 340.94211395 84.74520874 340.13352966 C83.98599224 338.48635674 83.22454057 336.84021234 82.4609375 335.19506836 C81.30627806 332.70715633 80.15839922 330.21620748 79.01171875 327.72460938 C74.5143247 317.97478741 74.5143247 317.97478741 69.76171875 308.34765625 C68.06057598 305.00712601 66.81717292 301.70950105 65.67578125 298.1328125 C64.53720789 295.63520672 63.37433302 293.16349399 62.17578125 290.6953125 C58.39854321 282.80312759 54.88185509 274.81202171 51.44140625 266.76782227 C48.91664531 260.891567 46.27228302 255.08258585 43.55128479 249.29455566 C41.45771006 244.83250746 39.4079919 240.35231081 37.38041687 235.8598938 C35.83726606 232.44146758 34.28466909 229.02736246 32.73193359 225.61328125 C31.93715373 223.86010004 31.14620351 222.10517819 30.35888672 220.34863281 C29.2015265 217.76920967 28.02992257 215.19667656 26.85546875 212.625 C26.50950653 211.84478485 26.16354431 211.0645697 25.80709839 210.26071167 C23.7186878 205.72976516 21.61897237 202.35521367 17.67578125 199.1328125 C11.57593116 198.04355356 9.60103816 199.62580925 5.67578125 204.1328125 Z " fill="#179CFB" transform="translate(553.32421875,126.8671875)"/>
<path d="M0 0 C2.16507135 -0.00243324 4.33014158 -0.00615769 6.49520874 -0.01106262 C12.32738526 -0.02039843 18.15939183 -0.01111024 23.99155498 0.00226951 C30.11453293 0.01365449 36.23750338 0.00947134 42.36048889 0.00752258 C52.6314672 0.00664229 62.90237916 0.0176683 73.17333984 0.03613281 C85.03527533 0.05733581 96.897114 0.06080032 108.75906461 0.05457085 C120.19812413 0.04887203 131.63714968 0.05452645 143.0762043 0.0657444 C147.9336364 0.07037947 152.79104766 0.07126902 157.64848137 0.06915855 C163.36546533 0.06727165 169.08235103 0.07541052 174.79931259 0.09121895 C176.89347871 0.09545145 178.98765481 0.09631933 181.08182335 0.09352875 C183.94621157 0.09029144 186.81030902 0.09942742 189.67466736 0.11161804 C190.49743744 0.10783872 191.32020753 0.10405939 192.16791004 0.10016555 C199.32824997 0.15385036 206.67680501 0.87178953 212.72680664 4.99731445 C213.41129883 5.44333008 214.09579102 5.8893457 214.80102539 6.34887695 C221.03542613 11.98486226 224.54450727 18.95316216 227.85180664 26.55981445 C228.48094971 27.97665527 228.48094971 27.97665527 229.12280273 29.42211914 C230.44019934 32.40045227 231.74104834 35.38559507 233.03930664 38.37231445 C233.47839355 39.37407715 233.91748047 40.37583984 234.36987305 41.40795898 C235.64113613 44.30999136 236.90498613 47.21508165 238.16430664 50.12231445 C238.55465088 51.02103271 238.94499512 51.91975098 239.34716797 52.84570312 C239.8792688 54.08864136 239.8792688 54.08864136 240.42211914 55.35668945 C240.89222412 56.45062012 240.89222412 56.45062012 241.37182617 57.56665039 C242.03930664 59.37231445 242.03930664 59.37231445 242.03930664 61.37231445 C242.69930664 61.70231445 243.35930664 62.03231445 244.03930664 62.37231445 C244.72607422 64.07617188 244.72607422 64.07617188 245.37133789 66.2902832 C246.47248714 69.79608184 247.75292598 73.09015892 249.30102539 76.4230957 C258.35961905 95.96285851 258.35961905 95.96285851 256.03930664 104.37231445 C253.90285099 109.30826372 250.78792139 112.37314582 245.88277245 114.55973911 C238.44819212 117.35035016 230.73637475 116.92208052 222.91885376 116.8735199 C221.1806532 116.87741648 219.44245584 116.88305978 217.70426595 116.8902908 C212.94580665 116.90501125 208.18767941 116.8948846 203.42923093 116.88055408 C198.29088817 116.8694293 193.15259142 116.88139166 188.01425171 116.89039612 C177.95704349 116.90431851 167.89996095 116.89678061 157.84275873 116.88172054 C146.13402744 116.86485474 134.42532739 116.86807124 122.71658771 116.87181462 C101.8314595 116.87769096 80.94639161 116.86352834 60.0612793 116.83886719 C39.78586569 116.81492861 19.51053262 116.80787039 -0.76489258 116.81835938 C-22.84234147 116.82976011 -44.91975313 116.83171053 -66.99720156 116.81726128 C-69.34950995 116.81573541 -71.70181834 116.81421506 -74.05412674 116.81270027 C-75.21154033 116.81194246 -76.36895391 116.81118464 -77.56144064 116.81040386 C-85.72801209 116.80565595 -93.89456695 116.80751593 -102.06113815 116.81176567 C-112.00516739 116.81668424 -121.94912039 116.81074364 -131.89313214 116.79087137 C-136.96905174 116.78097837 -142.04485508 116.77591598 -147.12078094 116.78376389 C-151.76277424 116.79079431 -156.40453238 116.78407829 -161.04649456 116.76616026 C-162.72996587 116.76209872 -164.41345844 116.763144 -166.09692197 116.76967912 C-168.3772793 116.77777707 -170.6568341 116.76758193 -172.93713951 116.75263119 C-174.20606021 116.75160206 -175.47498091 116.75057293 -176.78235376 116.74951261 C-180.18332985 116.34589246 -181.60219561 115.82054404 -183.96069336 113.37231445 C-184.51538086 110.48950195 -184.51538086 110.48950195 -183.96069336 107.37231445 C-181.84350586 104.81762695 -181.84350586 104.81762695 -179.08569336 102.49731445 C-177.72831055 101.32555664 -177.72831055 101.32555664 -176.34350586 100.13012695 C-173.96069336 98.37231445 -173.96069336 98.37231445 -171.96069336 98.37231445 C-171.96069336 97.71231445 -171.96069336 97.05231445 -171.96069336 96.37231445 C-170.23022461 94.8137207 -170.23022461 94.8137207 -167.77319336 92.93481445 C-163.65649958 89.72263367 -159.62370432 86.44316428 -155.64819336 83.05981445 C-155.10283936 82.59663818 -154.55748535 82.13346191 -153.99560547 81.65625 C-152.31648392 80.22922966 -150.63855772 78.80081261 -148.96069336 77.37231445 C-132.165828 63.09103315 -115.02441984 49.25294944 -97.64282227 35.69262695 C-95.99400531 34.39846119 -94.35740227 33.09013359 -92.72241211 31.77856445 C-65.18037618 9.85923894 -35.07018778 -0.13937073 0 0 Z " fill="#1499FA" transform="translate(531.960693359375,714.627685546875)"/>
<path d="M0 0 C0.66 0.33 1.32 0.66 2 1 C-4.0889131 6.64902964 -10.1880106 12.08512832 -16.80859375 17.11328125 C-19.14072 19.00063252 -19.14072 19.00063252 -21.16015625 21.73046875 C-21.76730469 22.47941406 -22.37445313 23.22835937 -23 24 C-23.66 24 -24.32 24 -25 24 C-24.67 25.32 -24.34 26.64 -24 28 C-23.40346587 27.99907821 -22.80693174 27.99815641 -22.19232082 27.99720669 C-7.66087387 27.97509872 6.87057208 27.95856273 21.4020319 27.94818783 C28.42940437 27.94303693 35.4567656 27.93601725 42.48413086 27.92456055 C49.26627649 27.91350892 56.04841043 27.90771492 62.8305645 27.90512276 C65.41770041 27.90327551 68.00483569 27.89966832 70.59196663 27.89426994 C74.21635442 27.88700817 77.84069399 27.88601124 81.46508789 27.88647461 C82.53395737 27.88287933 83.60282684 27.87928406 84.7040863 27.87557983 C85.69816498 27.8769545 86.69224365 27.87832916 87.71644592 27.87974548 C89.00096445 27.87836279 89.00096445 27.87836279 90.31143284 27.87695217 C93 28 93 28 96.08900356 28.53483677 C101.39528745 29.16595168 106.53308698 28.83778731 111.85949707 28.56286621 C125.00047146 27.97438459 138.09670382 27.90593571 151.24804688 27.99414062 C153.64628869 28.00596603 156.04453309 28.01727702 158.44277954 28.02812195 C163.54754359 28.05221995 168.65227281 28.0797337 173.75700378 28.11003113 C181.15660965 28.15381122 188.55623427 28.19057567 195.95588762 28.22527176 C207.99567813 28.28181941 220.03544331 28.3425295 232.07519531 28.40673828 C233.14959522 28.41246592 233.14959522 28.41246592 234.24570018 28.41830927 C238.60245448 28.44155724 242.95920824 28.4649042 247.31596184 28.4882822 C253.8665649 28.52342748 260.41716855 28.55845821 266.96777344 28.59326172 C268.0444627 28.5989844 268.0444627 28.5989844 269.14290327 28.6048227 C281.1558271 28.66853709 293.16876867 28.7279496 305.18172884 28.7843852 C313.20682087 28.82231216 321.23185574 28.86571553 329.25689793 28.91316986 C334.25956228 28.94166638 339.26224124 28.96562586 344.26493454 28.98841286 C346.56658822 28.99981372 348.86823371 29.01305432 351.16986465 29.02837181 C362.93767006 29.10571684 374.62115519 29.00496033 386.36441803 28.20023346 C389.48830695 28.02818203 392.50394994 28.02733886 395.625 28.1875 C401.74412853 28.28261599 406.06142037 25.29238642 411 22 C409.72168567 25.97697791 407.31875268 27.25108607 403.8515625 29.16796875 C399.56925907 31.09229498 395.63165159 31.12685009 390.95968628 31.13142776 C390.24715234 31.1334804 389.5346184 31.13553303 388.80049253 31.13764787 C386.40066919 31.14332534 384.0009031 31.1418597 381.60107422 31.14044189 C379.86805594 31.14302508 378.13503826 31.14603811 376.40202141 31.1494453 C371.63011728 31.15752363 366.85822818 31.15930533 362.08631802 31.16004276 C356.94379204 31.1618918 351.8012739 31.16943825 346.65875244 31.17617798 C335.41114662 31.18976647 324.16354436 31.19578646 312.9159317 31.20018864 C305.89722111 31.20294947 298.8785119 31.20718647 291.85980225 31.21169281 C272.43824347 31.2238848 253.01668581 31.23418513 233.59512329 31.2375679 C232.3518733 31.23778747 231.1086233 31.23800703 229.82769907 31.23823325 C228.58143515 31.23845153 227.33517123 31.23866981 226.05114174 31.2388947 C223.52563095 31.23933817 221.00012016 31.23978473 218.47460938 31.24023438 C217.22186242 31.2404558 215.96911546 31.24067723 214.67840648 31.24090537 C194.36352037 31.24485636 174.04867006 31.26231985 153.73379779 31.2855939 C132.89170169 31.30927992 112.04962359 31.32176845 91.20751381 31.32293582 C79.49930496 31.32385399 67.7911428 31.32964205 56.08294678 31.34775543 C46.11682748 31.36311917 36.15076929 31.3682989 26.18464041 31.36001733 C21.09660151 31.35609793 16.00868583 31.35710308 10.92066193 31.37107468 C6.26734297 31.38373624 1.6142408 31.38268484 -3.03907752 31.37048396 C-4.72677236 31.36851348 -6.41448216 31.37166712 -8.10215592 31.38032833 C-10.38826643 31.39132245 -12.67359847 31.38400397 -14.95968628 31.3719368 C-16.86794599 31.37283243 -16.86794599 31.37283243 -18.81475639 31.37374616 C-22.22156793 30.97400194 -23.63913617 30.45307089 -26 28 C-26.5546875 25.1171875 -26.5546875 25.1171875 -26 22 C-23.8828125 19.4453125 -23.8828125 19.4453125 -21.125 17.125 C-20.22007812 16.34382812 -19.31515625 15.56265625 -18.3828125 14.7578125 C-16 13 -16 13 -14 13 C-14 12.34 -14 11.68 -14 11 C-12.47047124 9.62517548 -10.87477094 8.32334103 -9.25 7.0625 C-7.92742187 6.02802734 -7.92742187 6.02802734 -6.578125 4.97265625 C-4.39478097 3.30206725 -2.20423948 1.64287942 0 0 Z " fill="#128FF2" transform="translate(374,800)"/>
<path d="M0 0 C1.15822266 0.02707031 1.15822266 0.02707031 2.33984375 0.0546875 C3.19255859 0.08949219 3.19255859 0.08949219 4.0625 0.125 C4.0625 0.455 4.0625 0.785 4.0625 1.125 C3.03511719 1.34414062 2.00773438 1.56328125 0.94921875 1.7890625 C-13.99921332 5.140883 -26.36114053 10.68161235 -34.9375 23.9375 C-38.38872513 29.81336274 -41.23051937 35.88049072 -43.88476562 42.15356445 C-46.10512263 47.3907894 -48.59198413 52.4547416 -51.16079712 57.52992249 C-54.9424091 65.05084249 -58.32294033 72.7497347 -61.73706055 80.44238281 C-65.29301195 88.44201535 -68.99172578 96.33674562 -72.93948364 104.15098572 C-76.50982675 111.22613983 -79.88893453 118.38611311 -83.25 125.5625 C-83.93192582 127.01499289 -84.61389322 128.46746626 -85.29589844 129.91992188 C-93.55527858 147.52669734 -101.71738505 165.17883437 -109.87719727 182.83190918 C-111.18947628 185.66994294 -112.50322999 188.50729217 -113.81719971 191.34454346 C-115.19154096 194.31260927 -116.56448558 197.28132016 -117.9375 200.25 C-118.41155273 201.27351562 -118.88560547 202.29703125 -119.37402344 203.3515625 C-121.09916577 207.08659184 -122.80715169 210.81775041 -124.4140625 214.60546875 C-126.56700176 219.57931047 -128.94935943 224.43574669 -131.3125 229.3125 C-136.23264399 239.51376865 -141.04257842 249.76146985 -145.79614258 260.04125977 C-150.15664202 269.4635707 -154.57092289 278.85975411 -159 288.25 C-163.68724766 298.18959211 -168.34758802 308.13995591 -172.9375 318.125 C-179.47748467 332.34759762 -186.15619675 346.50412744 -192.83349609 360.66259766 C-196.0494523 367.48227075 -199.26039914 374.30430192 -202.47106934 381.12646484 C-203.46252486 383.23288143 -204.45437211 385.33911317 -205.44628906 387.4453125 C-209.62919177 396.32963722 -213.79036309 405.22392533 -217.9375 414.125 C-219.29126321 410.06371037 -218.12152169 408.79143049 -216.2890625 404.97265625 C-216.00092178 404.36448059 -215.71278107 403.75630493 -215.41590881 403.12969971 C-214.47344122 401.1447054 -213.5178713 399.1663112 -212.5625 397.1875 C-211.59051941 395.14635606 -210.62208603 393.1035524 -209.65367126 391.06071472 C-209.00644144 389.69624328 -208.35805251 388.33232105 -207.70851135 386.96894836 C-204.94117762 381.15763119 -202.25824379 375.31084625 -199.625 369.4375 C-199.25906738 368.62611572 -198.89313477 367.81473145 -198.51611328 366.97875977 C-197.20401234 364.05188802 -195.95250738 361.17002214 -194.9375 358.125 C-193.44373615 355.11239713 -191.92043318 352.1181427 -190.37695312 349.13085938 C-188.55034564 345.79833594 -188.55034564 345.79833594 -187.9375 342.125 C-187.2775 342.125 -186.6175 342.125 -185.9375 342.125 C-185.67340332 341.28437012 -185.40930664 340.44374023 -185.13720703 339.57763672 C-183.8641442 335.91388936 -182.35196734 332.40651494 -180.7421875 328.8828125 C-180.43105011 328.19677948 -180.11991272 327.51074646 -179.79934692 326.80392456 C-179.14017375 325.35265869 -178.47948952 323.90207831 -177.81738281 322.45214844 C-176.83212677 320.29301104 -175.85320177 318.13109074 -174.875 315.96875 C-171.66413392 308.90014618 -168.36127213 301.89617912 -164.85546875 294.96875 C-161.11608599 287.5794415 -157.70827841 280.08125126 -154.375 272.5 C-150.66580032 264.07124195 -146.8057804 255.76843214 -142.6496582 247.55029297 C-139.91926782 242.08795487 -137.36666502 236.54638263 -134.8125 231 C-133.97080326 229.17977229 -133.12910287 227.35954626 -132.28720093 225.53941345 C-131.41933642 223.66247856 -130.55237725 221.78512752 -129.68554688 219.90771484 C-127.37773491 214.91127291 -125.05993436 209.91947723 -122.74145508 204.92797852 C-121.63354779 202.54219997 -120.52659377 200.15597849 -119.4206543 197.76928711 C-117.15562218 192.88346416 -114.8866331 188.00051881 -112.56640625 183.140625 C-112.23044434 182.43397705 -111.89448242 181.7273291 -111.54833984 180.99926758 C-110.70749807 179.23554526 -109.85996925 177.47501488 -109.01171875 175.71484375 C-107.7459345 173.13045127 -107.7459345 173.13045127 -107.9375 170.125 C-107.2775 170.125 -106.6175 170.125 -105.9375 170.125 C-105.68025146 169.29210449 -105.42300293 168.45920898 -105.15795898 167.60107422 C-103.81452045 163.77473338 -102.16253561 160.15778797 -100.41015625 156.5078125 C-100.06495941 155.78132507 -99.71976257 155.05483765 -99.36410522 154.30633545 C-98.62654952 152.7546356 -97.88753698 151.20362752 -97.14718628 149.65325928 C-95.21771708 145.61118272 -93.30087692 141.56312254 -91.3828125 137.515625 C-91.00211105 136.71289154 -90.62140961 135.91015808 -90.22917175 135.08309937 C-86.90663015 128.07263356 -83.62041674 121.0465291 -80.375 114 C-79.91681885 113.01273926 -79.4586377 112.02547852 -78.98657227 111.00830078 C-78.3725354 109.67001221 -78.3725354 109.67001221 -77.74609375 108.3046875 C-77.39345459 107.53882324 -77.04081543 106.77295898 -76.67749023 105.98388672 C-75.81421522 104.14876362 -75.81421522 104.14876362 -75.9375 102.125 C-75.2775 102.125 -74.6175 102.125 -73.9375 102.125 C-73.6811377 101.29387695 -73.42477539 100.46275391 -73.16064453 99.60644531 C-71.80514195 95.7482683 -70.13524819 92.1020471 -68.3671875 88.421875 C-67.83694473 87.30684097 -67.83694473 87.30684097 -67.29598999 86.16928101 C-66.1381868 83.7362364 -64.97555834 81.30553638 -63.8125 78.875 C-62.1783195 75.45117235 -60.54598118 72.02646871 -58.9140625 68.6015625 C-58.49958862 67.73252289 -58.08511475 66.86348328 -57.65808105 65.96810913 C-54.86751119 60.10768166 -52.12033301 54.22853446 -49.3984375 48.3359375 C-48.68132166 46.78930951 -47.9640398 45.24275847 -47.24658203 43.69628906 C-46.22631469 41.49708994 -45.20889877 39.296846 -44.20159912 37.0916748 C-40.76640014 29.57473338 -37.39775161 22.42831368 -31.9375 16.125 C-31.41188477 15.50471924 -30.88626953 14.88443848 -30.34472656 14.24536133 C-23.22110111 6.08869185 -10.94229209 -0.33668591 0 0 Z " fill="#0F85E8" transform="translate(531.9375,128.875)"/>
<path d="M0 0 C0.66 0 1.32 0 2 0 C-0.50889922 8.53213667 -4.39116185 16.30465593 -8.3125 24.25 C-9.62334373 26.92077548 -10.9312206 29.59299635 -12.23828125 32.265625 C-12.55741486 32.91744751 -12.87654846 33.56927002 -13.20535278 34.24084473 C-16.83172188 41.66794209 -20.38608961 49.13786133 -23.609375 56.75 C-25.37979779 60.88761731 -27.3107719 64.9393789 -29.25 69 C-31.9413758 74.65557006 -34.61860393 80.31618449 -37.25 86 C-40.46586671 92.93247058 -43.79840129 99.80764446 -47.125 106.6875 C-52.26628783 117.32659374 -57.286577 128.01573943 -62.23779297 138.74487305 C-66.28696029 147.50693462 -70.43034609 156.220343 -74.66259766 164.89550781 C-75.08847168 165.77561523 -75.5143457 166.65572266 -75.953125 167.5625 C-76.32598633 168.32691406 -76.69884766 169.09132813 -77.08300781 169.87890625 C-77.96090276 171.9095642 -78.53377795 173.84142861 -79 176 C-79.66 176 -80.32 176 -81 176 C-81.11782837 176.96450073 -81.11782837 176.96450073 -81.23803711 177.94848633 C-82.30326286 182.21450897 -84.23093903 185.90272674 -86.19140625 189.82421875 C-86.82670509 191.11462822 -86.82670509 191.11462822 -87.47483826 192.43110657 C-88.83187865 195.18600072 -90.19654998 197.93701397 -91.5625 200.6875 C-93.33906033 204.27256969 -95.11155122 207.85960181 -96.87890625 211.44921875 C-97.31364761 212.33217117 -97.74838898 213.2151236 -98.19630432 214.12483215 C-101.40203077 220.67824924 -104.43370078 227.29549535 -107.34059143 233.98661804 C-109.39705099 238.7136919 -111.6060595 243.33999509 -113.9375 247.9375 C-114.45111084 248.95073334 -114.45111084 248.95073334 -114.97509766 249.98443604 C-115.28237793 250.59027527 -115.5896582 251.1961145 -115.90625 251.8203125 C-118.32568842 256.61498806 -120.63652474 261.46009382 -122.9375 266.3125 C-123.32736084 267.13161865 -123.71722168 267.9507373 -124.11889648 268.79467773 C-124.48055908 269.55981689 -124.84222168 270.32495605 -125.21484375 271.11328125 C-125.53573975 271.79173096 -125.85663574 272.47018066 -126.18725586 273.16918945 C-128.49181464 278.36050406 -128.81026899 282.82506745 -126.8125 288.1875 C-123.57614693 293.20942718 -119.81154853 295.73202577 -114 297 C-102.99994255 298.45055703 -92.22377267 295.12994716 -83.05078125 289.04296875 C-81.53390764 287.84363712 -80.04469448 286.60743021 -78.6015625 285.3203125 C-77 284 -77 284 -75 284 C-75 284.66 -75 285.32 -75 286 C-85.55914118 294.69576333 -97.0035783 300.44908305 -111 300 C-117.81187267 298.98795035 -123.6707852 296.50121218 -128 291 C-130.83215538 285.86790637 -131.41849818 282.10723579 -129.81860352 276.375 C-128.07421878 271.3140472 -125.72933376 266.51852479 -123.4375 261.6875 C-122.86495308 260.46778086 -122.29277892 259.24788667 -121.72094727 258.02783203 C-116.70063855 247.35110859 -111.52333936 236.74991551 -106.3503418 226.14660645 C-101.45820538 216.11689948 -96.62881606 206.06285836 -91.9375 195.9375 C-91.17747681 194.30530518 -91.17747681 194.30530518 -90.40209961 192.64013672 C-89.94843018 191.65416504 -89.49476074 190.66819336 -89.02734375 189.65234375 C-88.63281006 188.79632568 -88.23827637 187.94030762 -87.83178711 187.05834961 C-86.8751105 185.0609573 -86.8751105 185.0609573 -87 183 C-86.34 183 -85.68 183 -85 183 C-84.73340576 182.14696289 -84.46681152 181.29392578 -84.19213867 180.41503906 C-82.97490899 176.92812349 -81.52036138 173.68971585 -79.92578125 170.359375 C-79.33503053 169.11210035 -78.74454318 167.86470093 -78.15429688 166.6171875 C-77.22903246 164.67129096 -76.30129978 162.72666646 -75.36889648 160.78417969 C-74.4642249 158.89579904 -73.56936243 157.00302313 -72.67578125 155.109375 C-72.13864502 153.98499023 -71.60150879 152.86060547 -71.0480957 151.70214844 C-70.70222412 150.81043945 -70.35635254 149.91873047 -70 149 C-70.33 148.34 -70.66 147.68 -71 147 C-70.01 147 -69.02 147 -68 147 C-67.74581299 146.17322754 -67.49162598 145.34645508 -67.22973633 144.49462891 C-65.84021058 140.54591507 -64.13659632 136.85410573 -62.32421875 133.0859375 C-61.96306473 132.32753571 -61.60191071 131.56913391 -61.22981262 130.78775024 C-60.4551334 129.16167308 -59.67893914 127.53631698 -58.90136719 125.91162109 C-56.83721159 121.59815034 -54.78441007 117.27927882 -52.73046875 112.9609375 C-52.32025482 112.09917908 -51.91004089 111.23742065 -51.48739624 110.34954834 C-48.11259338 103.25381768 -44.79319669 96.13401166 -41.5 89 C-36.42067379 78.00968303 -31.2538855 67.06271548 -26.0625 56.125 C-20.36478353 44.11857647 -14.68586731 32.10394988 -9.0625 20.0625 C-8.77118195 19.43966125 -8.47986389 18.81682251 -8.17971802 18.17510986 C-5.3638955 12.15272805 -2.56291014 6.13491033 0 0 Z " fill="#0E83E7" transform="translate(311,544)"/>
<path d="M0 0 C-4.00077472 2.06936623 -7.17075399 3.12522469 -11.68864441 3.12025452 C-12.65198196 3.12162918 -13.61531952 3.12300385 -14.60784912 3.12442017 C-15.66304749 3.12082489 -16.71824585 3.11722961 -17.80541992 3.11352539 C-18.91776505 3.11367142 -20.03011017 3.11381744 -21.17616272 3.1139679 C-24.86095108 3.11327 -28.54568919 3.10548331 -32.23046875 3.09765625 C-34.78208895 3.09579163 -37.33370951 3.09436794 -39.8853302 3.09336853 C-45.92012123 3.08993763 -51.95489061 3.08205231 -57.98967296 3.07201904 C-64.86022598 3.06084404 -71.73077986 3.05534395 -78.6013397 3.05032361 C-92.73423649 3.03986934 -106.86711726 3.02227852 -121 3 C-121.33 2.01 -121.66 1.02 -122 0 C-109.93228113 -0.15544919 -97.86449515 -0.30358681 -85.79657936 -0.4429636 C-80.19002062 -0.50793332 -74.58351139 -0.57521034 -68.97705078 -0.64819336 C-21.31242969 -1.26554923 -21.31242969 -1.26554923 0 0 Z " fill="#1094F9" transform="translate(642,518)"/>
<path d="M0 0 C0.66 0.33 1.32 0.66 2 1 C-4.0889131 6.64902964 -10.1880106 12.08512832 -16.80859375 17.11328125 C-19.14072 19.00063252 -19.14072 19.00063252 -21.16015625 21.73046875 C-21.76730469 22.47941406 -22.37445313 23.22835937 -23 24 C-23.66 24 -24.32 24 -25 24 C-24.67 25.32 -24.34 26.64 -24 28 C-23.10105074 27.99723462 -23.10105074 27.99723462 -22.18394089 27.99441338 C-7.60348684 27.9502499 6.97696325 27.917151 21.55746841 27.89637566 C28.60848645 27.88606188 35.65945984 27.87199964 42.71044922 27.84912109 C49.51203587 27.82706231 56.31357606 27.81543877 63.11519623 27.81024551 C65.71319052 27.80654344 68.31118221 27.79931445 70.9091568 27.78853989 C74.54138223 27.77407191 78.17341457 27.77202011 81.80566406 27.77294922 C82.88531937 27.76575867 83.96497467 27.75856812 85.0773468 27.75115967 C86.06730148 27.753909 87.05725616 27.75665833 88.07720947 27.75949097 C88.93632053 27.75764738 89.79543159 27.75580379 90.68057632 27.75390434 C93.1951848 28.02070951 94.82847053 28.73612533 97 30 C81.40576628 30.04669503 65.81155139 30.08197657 50.21726513 30.10362434 C42.97676953 30.11394239 35.73631735 30.12801277 28.49584961 30.15087891 C22.18597282 30.17079666 15.87612746 30.1837126 9.5662201 30.18817699 C6.2243408 30.19078712 2.88255143 30.19693293 -0.45929909 30.21146011 C-4.18752067 30.22590828 -7.91555391 30.22798073 -11.64379883 30.22705078 C-12.75510162 30.23424133 -13.86640442 30.24143188 -15.01138306 30.24884033 C-16.02520554 30.246091 -17.03902802 30.24334167 -18.08357239 30.24050903 C-18.96572827 30.24235262 -19.84788416 30.24419621 -20.75677204 30.24609566 C-23 30 -23 30 -26 28 C-26.4921875 25.1796875 -26.4921875 25.1796875 -26 22 C-23.8828125 19.4453125 -23.8828125 19.4453125 -21.125 17.125 C-20.22007812 16.34382812 -19.31515625 15.56265625 -18.3828125 14.7578125 C-16 13 -16 13 -14 13 C-14 12.34 -14 11.68 -14 11 C-12.47047124 9.62517548 -10.87477094 8.32334103 -9.25 7.0625 C-7.92742187 6.02802734 -7.92742187 6.02802734 -6.578125 4.97265625 C-4.39478097 3.30206725 -2.20423948 1.64287942 0 0 Z " fill="#0987F3" transform="translate(374,800)"/>
<path d="M0 0 C0.99 0.495 0.99 0.495 2 1 C1.08057617 1.51216064 1.08057617 1.51216064 0.14257812 2.03466797 C-16.89184247 11.54247378 -33.58200572 20.99672928 -49 33 C-50.01191406 33.76828125 -51.02382813 34.5365625 -52.06640625 35.328125 C-58.8094247 40.44794003 -65.40423604 45.73453221 -71.9609375 51.09033203 C-76.52302936 54.81302546 -81.11770339 58.490032 -85.75 62.125 C-86.32226318 62.57415771 -86.89452637 63.02331543 -87.48413086 63.48608398 C-90.29960839 65.6891518 -93.12999777 67.8683964 -96 70 C-96.66 69.67 -97.32 69.34 -98 69 C-96.8803014 67.99406757 -95.7540588 66.9954151 -94.625 66 C-93.99851562 65.443125 -93.37203125 64.88625 -92.7265625 64.3125 C-91 63 -91 63 -89 63 C-89 62.34 -89 61.68 -89 61 C-87.20038842 59.48080735 -85.39545141 58.07901399 -83.5 56.6875 C-77.24913874 52.00972069 -71.19839721 47.12150851 -65.20703125 42.1159668 C-64.55734375 41.58011963 -63.90765625 41.04427246 -63.23828125 40.4921875 C-62.66118408 40.01120605 -62.08408691 39.53022461 -61.48950195 39.03466797 C-60 38 -60 38 -58 38 C-58 37.34 -58 36.68 -58 36 C-56.62890625 34.9140625 -56.62890625 34.9140625 -54.5625 33.625 C-48.92410127 30.00095743 -43.48305331 26.12096049 -38.02954102 22.22705078 C-35.07791448 20.12947895 -32.1696864 18.09988154 -29.046875 16.26171875 C-26.86197231 15.16288606 -26.86197231 15.16288606 -26 13 C-23.53879155 11.65833041 -21.08476371 10.4037234 -18.5625 9.1875 C-17.10273762 8.47421811 -15.64310212 7.7606765 -14.18359375 7.046875 C-13.46929199 6.69947266 -12.75499023 6.35207031 -12.01904297 5.99414062 C-8.58440048 4.30298413 -5.20212606 2.5089245 -1.8203125 0.71484375 C-1.21960938 0.47894531 -0.61890625 0.24304688 0 0 Z " fill="#0C85EF" transform="translate(434,675)"/>
<path d="M0 0 C-5.3457603 2.76504843 -9.33094597 2.99171438 -15.2590332 2.58227539 C-26.45739561 1.90369304 -37.63939365 1.7767516 -48.85546875 1.68359375 C-50.98066041 1.66295698 -53.10584859 1.64195912 -55.23103333 1.62062073 C-60.75618627 1.56609258 -66.28137185 1.51638554 -71.80657959 1.46777344 C-77.47199316 1.41704419 -83.13736084 1.36162986 -88.80273438 1.30664062 C-99.86845015 1.19990962 -110.93420621 1.09828515 -122 1 C-122 0.67 -122 0.34 -122 0 C-109.93228113 -0.15544919 -97.86449515 -0.30358681 -85.79657936 -0.4429636 C-80.19002062 -0.50793332 -74.58351139 -0.57521034 -68.97705078 -0.64819336 C-21.31242969 -1.26554923 -21.31242969 -1.26554923 0 0 Z " fill="#016CE5" transform="translate(642,518)"/>
<path d="M0 0 C1.37863257 4.13589772 0.07528188 5.67683271 -1.7109375 9.609375 C-1.99852936 10.25440979 -2.28612122 10.89944458 -2.58242798 11.56402588 C-3.50414866 13.63026448 -4.43811978 15.69059493 -5.375 17.75 C-6.60142644 20.44864759 -7.81563331 23.15235082 -9.0234375 25.859375 C-9.56919434 27.06045898 -10.11495117 28.26154297 -10.67724609 29.49902344 C-12.42954534 34.13689188 -13.79191073 38.12442196 -11.8125 42.8125 C-9.10267191 46.08298218 -7.01179841 46.87048364 -2.79199219 47.41064453 C-1.55610352 47.48395996 -0.32021484 47.55727539 0.953125 47.6328125 C1.61334656 47.67437469 2.27356812 47.71593689 2.95379639 47.75875854 C5.05212876 47.88898423 7.15093948 48.00715632 9.25 48.125 C10.67713176 48.21144378 12.10421607 48.29867468 13.53125 48.38671875 C17.02033015 48.60026515 20.5099414 48.80301121 24 49 C24 49.33 24 49.66 24 50 C19.99821658 50.07468157 15.99670833 50.12885021 11.99438477 50.16479492 C10.63558883 50.17979409 9.27684059 50.20020038 7.91821289 50.22631836 C-7.6284496 50.51749713 -7.6284496 50.51749713 -13.63330078 45.68579102 C-15.98910214 42.77996601 -15.63946948 40.0115664 -15.53857422 36.38769531 C-14.4068919 29.26928014 -11.07549099 22.86664588 -8.0625 16.375 C-7.39465965 14.89274788 -6.72862891 13.40967903 -6.06445312 11.92578125 C-1.25702762 1.25702762 -1.25702762 1.25702762 0 0 Z " fill="#0C84EC" transform="translate(495,469)"/>
<path d="M0 0 C0.66 0.33 1.32 0.66 2 1 C-3.47715791 6.1111727 -9.07731014 10.91975431 -15 15.5 C-20.06064804 19.41627698 -24.87052885 23.49670729 -29.5859375 27.828125 C-32.97466137 30.8768798 -36.51175958 33.72710747 -40.0546875 36.59375 C-43.94337618 39.77071582 -47.7674711 43.02103843 -51.58520508 46.28271484 C-54.32652845 48.61704629 -57.08825124 50.88108886 -60 53 C-60.66 52.67 -61.32 52.34 -62 52 C-60.54712339 50.66072279 -59.08752741 49.32873153 -57.625 48 C-56.81289062 47.2575 -56.00078125 46.515 -55.1640625 45.75 C-53 44 -53 44 -51 44 C-51 43.34 -51 42.68 -51 42 C-48.9093482 40.23770706 -46.80761156 38.57893123 -44.625 36.9375 C-40.26985324 33.59680509 -36.03381248 30.23026472 -32 26.5 C-27.5869151 22.43531654 -22.93847237 18.77116196 -18.19604492 15.10571289 C-13.59999267 11.53072511 -9.25483063 7.74272494 -4.98828125 3.77734375 C-3 2 -3 2 0 0 Z " fill="#0C84ED" transform="translate(299,774)"/>
<path d="M0 0 C0.66 0.33 1.32 0.66 2 1 C6.84993128 18.40269459 5.0294077 34.94118461 -3 51 C-5.43492899 54.87873229 -8.10555102 58.455046 -11 62 C-11.51175781 62.66257812 -12.02351562 63.32515625 -12.55078125 64.0078125 C-13.63956208 65.38886193 -14.81007383 66.70508034 -16 68 C-16.66 68 -17.32 68 -18 68 C-16.66001732 65.01431044 -15.16607618 63.0052166 -12.875 60.6875 C-2.26509335 48.72360944 2.64282912 33.79965012 2.23828125 17.89453125 C1.91680982 13.9894439 1.25803853 10.20417981 0.4375 6.375 C0 4 0 4 0 0 Z " fill="#1188EB" transform="translate(832,570)"/>
<path d="M0 0 C3.04030435 2.59253395 4.37899663 5.53778122 6.046875 9.1328125 C6.33528259 9.74992599 6.62369019 10.36703949 6.9208374 11.00285339 C7.87075232 13.04046041 8.81077031 15.08244797 9.75 17.125 C10.40788345 18.54596511 11.06609148 19.96677998 11.72460938 21.38745117 C13.10783713 24.37563069 14.48606859 27.36605565 15.86132812 30.35791016 C17.65420049 34.25566899 19.4635623 38.14552495 21.27764893 42.03344727 C22.68733123 45.05945604 24.08807831 48.08953885 25.4864502 51.12078857 C26.16131291 52.58011925 26.8392868 54.03801525 27.52038574 55.4944458 C28.47090918 57.529873 29.40883125 59.57064942 30.34375 61.61328125 C31.15102539 63.35798706 31.15102539 63.35798706 31.97460938 65.13793945 C33 68 33 68 32 71 C25.20526507 56.9468894 18.67847934 42.7822257 12.26733398 28.55102539 C9.29935153 21.97550519 6.30191248 15.43615113 2.96923828 9.03442383 C1.56747959 6.09214293 0.75671845 3.16445899 0 0 Z " fill="#128BED" transform="translate(716,315)"/>
<path d="M0 0 C2.88304699 3.43013121 4.53393854 7.22046675 6.25 11.3125 C8.59605146 16.79685754 11.01402563 22.23178312 13.5625 27.625 C14.13595617 28.85912445 14.70887531 30.0934986 15.28125 31.328125 C16.43566719 33.81435834 17.6292261 36.27702262 18.84375 38.734375 C23.62491277 48.70163709 23.62491277 48.70163709 22.375 54.375 C21.92125 55.57125 21.4675 56.7675 21 58 C20.2870411 55.38390081 19.94261246 53.18222759 19.75 50.4375 C19.2144847 45.61786234 17.17925659 41.6337287 15.05859375 37.3203125 C14 35 14 35 14 33 C13.01 32.67 12.02 32.34 11 32 C11.66 32 12.32 32 13 32 C12.60619141 31.13721436 12.21238281 30.27442871 11.80664062 29.38549805 C10.34852272 26.1838939 8.89547113 22.980091 7.44580078 19.7746582 C6.81728553 18.38767399 6.18676333 17.00159741 5.55419922 15.61645508 C4.64542216 13.62556279 3.74390755 11.63152028 2.84375 9.63671875 C2.02680664 7.83787231 2.02680664 7.83787231 1.19335938 6.00268555 C0 3 0 3 0 0 Z " fill="#0E87ED" transform="translate(633,455)"/>
<path d="M0 0 C9.70916347 2.78207578 15.67815874 9.61104308 20.5 18.1875 C24.15425169 24.94065599 27.39946422 31.90958931 30.625 38.875 C31.07552734 39.8446167 31.52605469 40.8142334 31.99023438 41.81323242 C32.6022168 43.17025269 32.6022168 43.17025269 33.2265625 44.5546875 C33.59346191 45.36405762 33.96036133 46.17342773 34.33837891 47.00732422 C35 49 35 49 34 51 C33.18719075 49.37438151 32.3744131 47.74874722 31.56176758 46.12304688 C30.84597829 44.69179746 30.1296582 43.2608134 29.4128418 41.83007812 C27.55066723 38.11141253 25.69662103 34.38922557 23.86328125 30.65625 C21.94326779 26.75267653 19.98341985 22.87177382 18 19 C17.58363281 18.175 17.16726563 17.35 16.73828125 16.5 C13.89485932 11.39181744 9.95613135 8.24676711 5.3046875 4.76171875 C3.36063221 3.27566971 1.67325902 1.77715419 0 0 Z " fill="#118AEC" transform="translate(621,134)"/>
<path d="M0 0 C0.66 0.33 1.32 0.66 2 1 C-4.0889131 6.64902964 -10.1880106 12.08512832 -16.80859375 17.11328125 C-19.14072 19.00063252 -19.14072 19.00063252 -21.16015625 21.73046875 C-21.76730469 22.47941406 -22.37445313 23.22835937 -23 24 C-23.66 24 -24.32 24 -25 24 C-24.67 25.32 -24.34 26.64 -24 28 C-20.7 28.33 -17.4 28.66 -14 29 C-14 29.33 -14 29.66 -14 30 C-15.4370809 30.05422947 -16.87475462 30.09289723 -18.3125 30.125 C-19.51326172 30.15980469 -19.51326172 30.15980469 -20.73828125 30.1953125 C-23 30 -23 30 -26 28 C-26.4921875 25.1796875 -26.4921875 25.1796875 -26 22 C-23.8828125 19.4453125 -23.8828125 19.4453125 -21.125 17.125 C-20.22007812 16.34382812 -19.31515625 15.56265625 -18.3828125 14.7578125 C-16 13 -16 13 -14 13 C-14 12.34 -14 11.68 -14 11 C-12.47047124 9.62517548 -10.87477094 8.32334103 -9.25 7.0625 C-7.92742187 6.02802734 -7.92742187 6.02802734 -6.578125 4.97265625 C-4.39478097 3.30206725 -2.20423948 1.64287942 0 0 Z " fill="#0C82EA" transform="translate(374,800)"/>
<path d="M0 0 C0.66 0.33 1.32 0.66 2 1 C-4.14870551 6.58433158 -10.4804658 11.85614733 -17 17 C-18.77184083 18.41540638 -20.54269184 19.83205281 -22.3125 21.25 C-25.54166667 23.83333333 -28.77083333 26.41666667 -32 29 C-32.66 28.67 -33.32 28.34 -34 28 C-26.39508212 20.72358829 -18.32924385 14.2970006 -9.91796875 7.98046875 C-6.5187074 5.42171593 -3.242705 2.75400848 0 0 Z " fill="#0B85EE" transform="translate(431,753)"/>
<path d="M0 0 C0.50917969 0.23332031 1.01835937 0.46664062 1.54296875 0.70703125 C0.5271875 1.20332031 -0.48859375 1.69960938 -1.53515625 2.2109375 C-12.626404 7.66797746 -23.53762822 13.26747897 -33.45703125 20.70703125 C-33.45703125 19.71703125 -33.45703125 18.72703125 -33.45703125 17.70703125 C-31.3232463 15.98099544 -29.25520486 14.49840781 -26.95703125 13.01953125 C-26.29082764 12.58471436 -25.62462402 12.14989746 -24.93823242 11.7019043 C-20.01328378 8.55427714 -14.96857475 5.68838162 -9.76953125 3.01953125 C-9.09921875 2.66866455 -8.42890625 2.31779785 -7.73828125 1.95629883 C-3.04756891 -0.36338262 -3.04756891 -0.36338262 0 0 Z " fill="#0C86EE" transform="translate(478.45703125,724.29296875)"/>
<path d="M0 0 C12.87 0.495 12.87 0.495 26 1 C21.76340952 3.11829524 19.18701373 4.15894714 14.55078125 3.87890625 C13.70322266 3.83056641 12.85566406 3.78222656 11.98242188 3.73242188 C11.10134766 3.67634766 10.22027344 3.62027344 9.3125 3.5625 C8.41982422 3.51029297 7.52714844 3.45808594 6.60742188 3.40429688 C4.4045844 3.2747182 2.20221127 3.13975754 0 3 C0 2.01 0 1.02 0 0 Z " fill="#0980EF" transform="translate(616,517)"/>
<path d="M0 0 C0.66 0.33 1.32 0.66 2 1 C-10.48519362 12.70615034 -10.48519362 12.70615034 -17 17 C-17 16.01 -17 15.02 -17 14 C-14.8046875 11.9140625 -14.8046875 11.9140625 -11.875 9.625 C-10.87597656 8.83480469 -9.87695312 8.04460938 -8.84765625 7.23046875 C-7.43806641 6.12638672 -7.43806641 6.12638672 -6 5 C-4.76587268 3.9851694 -3.53535933 2.9658805 -2.3125 1.9375 C-1.1678125 0.9784375 -1.1678125 0.9784375 0 0 Z " fill="#0B83ED" transform="translate(394,783)"/>
<path d="M0 0 C7.79310283 0.32471262 12.30309405 4.17153766 17.5625 9.6875 C18.036875 10.450625 18.51125 11.21375 19 12 C18.67 12.99 18.34 13.98 18 15 C16.99406757 13.8803014 15.9954151 12.7540588 15 11.625 C14.1646875 10.68527344 14.1646875 10.68527344 13.3125 9.7265625 C12 8 12 8 12 6 C11.319375 5.731875 10.63875 5.46375 9.9375 5.1875 C6.60289191 3.83946694 3.30256763 2.42463702 0 1 C0 0.67 0 0.34 0 0 Z " fill="#0F89EF" transform="translate(735,717)"/>
<path d="M0 0 C0.66 0.33 1.32 0.66 2 1 C0.27860959 2.63396428 -1.45128792 4.25691274 -3.1875 5.875 C-3.91163086 6.56529297 -3.91163086 6.56529297 -4.65039062 7.26953125 C-7.59421881 9.99602984 -10.16905516 11.78138135 -14 13 C-11.93506643 8.97881358 -10.07786057 6.98665002 -6 5 C-5.34 5 -4.68 5 -4 5 C-4 4.34 -4 3.68 -4 3 C-2 1.375 -2 1.375 0 0 Z " fill="#0B82EB" transform="translate(316,760)"/>
<path d="M0 0 C0.66 0.33 1.32 0.66 2 1 C0.27860959 2.63396428 -1.45128792 4.25691274 -3.1875 5.875 C-3.91163086 6.56529297 -3.91163086 6.56529297 -4.65039062 7.26953125 C-7.59421881 9.99602984 -10.16905516 11.78138135 -14 13 C-12.71937515 11.2925002 -11.38232443 9.62626404 -10 8 C-9.34 8 -8.68 8 -8 8 C-8 7.34 -8 6.68 -8 6 C-6.25 4.4921875 -6.25 4.4921875 -4 2.875 C-3.2575 2.33617187 -2.515 1.79734375 -1.75 1.2421875 C-1.1725 0.83226562 -0.595 0.42234375 0 0 Z " fill="#0B83EE" transform="translate(333,746)"/>
<path d="M0 0 C3.1875 -0.375 3.1875 -0.375 7 0 C10.68995007 3.52222506 13.0558536 7.24764214 15 12 C14.67 12.66 14.34 13.32 14 14 C13.60167969 13.30132812 13.20335937 12.60265625 12.79296875 11.8828125 C12.26316406 10.97273438 11.73335937 10.06265625 11.1875 9.125 C10.66542969 8.22007812 10.14335938 7.31515625 9.60546875 6.3828125 C7.57049499 3.36253514 5.85918681 2.19981089 2.3125 1.375 C1.549375 1.25125 0.78625 1.1275 0 1 C0 0.67 0 0.34 0 0 Z " fill="#0E86ED" transform="translate(565,324)"/>
<path d="M0 0 C0.66 0.33 1.32 0.66 2 1 C-1.96 4.465 -1.96 4.465 -6 8 C-6 5 -6 5 -4.6875 3.61328125 C-3.125 2.40885417 -1.5625 1.20442708 0 0 Z " fill="#0A83ED" transform="translate(441,745)"/>
<path d="M0 0 C0.66 0.66 1.32 1.32 2 2 C0.02 2 -1.96 2 -4 2 C-2.68 1.34 -1.36 0.68 0 0 Z " fill="#2BACF7" transform="translate(710,712)"/>
<path d="M0 0 C2.31 0 4.62 0 7 0 C7 0.33 7 0.66 7 1 C4.69 1 2.38 1 0 1 C0 0.67 0 0.34 0 0 Z " fill="#2BADFA" transform="translate(720,663)"/>
<path d="M0 0 C2.31 0 4.62 0 7 0 C7 0.33 7 0.66 7 1 C4.69 1 2.38 1 0 1 C0 0.67 0 0.34 0 0 Z " fill="#28ACFC" transform="translate(704,663)"/>
<path d="M0 0 C2.31 0 4.62 0 7 0 C7 0.33 7 0.66 7 1 C4.69 1 2.38 1 0 1 C0 0.67 0 0.34 0 0 Z " fill="#2BADFA" transform="translate(688,663)"/>
<path d="M0 0 C0.33 0.66 0.66 1.32 1 2 C-0.65 2 -2.3 2 -4 2 C-2.68 1.34 -1.36 0.68 0 0 Z " fill="#2BADF5" transform="translate(704,712)"/>
<path d="M0 0 C0.99 0.66 1.98 1.32 3 2 C1.35 2 -0.3 2 -2 2 C-1.34 1.34 -0.68 0.68 0 0 Z " fill="#2BADF6" transform="translate(678,712)"/>
<path d="M0 0 C1.98 0 3.96 0 6 0 C6 0.33 6 0.66 6 1 C4.02 1 2.04 1 0 1 C0 0.67 0 0.34 0 0 Z " fill="#2BADF7" transform="translate(658,713)"/>
<path d="M0 0 C1.98 0 3.96 0 6 0 C6 0.33 6 0.66 6 1 C4.02 1 2.04 1 0 1 C0 0.67 0 0.34 0 0 Z " fill="#2AABFB" transform="translate(680,663)"/>
<path d="M0 0 C1.65 0 3.3 0 5 0 C5 0.33 5 0.66 5 1 C3.35 1 1.7 1 0 1 C0 0.67 0 0.34 0 0 Z " fill="#27ACF8" transform="translate(530,713)"/>
<path d="M0 0 C0.66 0.66 1.32 1.32 2 2 C0.68 1.67 -0.64 1.34 -2 1 C-1.34 0.67 -0.68 0.34 0 0 Z " fill="#2AADF7" transform="translate(646,712)"/>
<path d="M0 0 C4 1 4 1 4 1 Z " fill="#2AABF5" transform="translate(716,713)"/>
<path d="M0 0 C4 1 4 1 4 1 Z " fill="#2BADF6" transform="translate(684,713)"/>
<path d="M0 0 C4 1 4 1 4 1 Z " fill="#2AAEF6" transform="translate(653,713)"/>
<path d="M0 0 C4 1 4 1 4 1 Z " fill="#29ACF7" transform="translate(636,713)"/>
<path d="M0 0 C4 1 4 1 4 1 Z " fill="#2BADF6" transform="translate(628,713)"/>
<path d="M0 0 C4 1 4 1 4 1 Z " fill="#2BACF7" transform="translate(621,713)"/>
<path d="M0 0 C4 1 4 1 4 1 Z " fill="#27AAFA" transform="translate(562,663)"/>
<path d="M0 0 C0.99 0.495 0.99 0.495 2 1 C1.67 1.66 1.34 2.32 1 3 C0.67 2.01 0.34 1.02 0 0 Z " fill="#21A4FA" transform="translate(611,413)"/>
<path d="M0 0 C3 1 3 1 3 1 Z " fill="#28A8F5" transform="translate(725,713)"/>
<path d="M0 0 C3 1 3 1 3 1 Z " fill="#28ADF7" transform="translate(564,713)"/>
<path d="M0 0 C3 1 3 1 3 1 Z " fill="#28ADF6" transform="translate(557,713)"/>
<path d="M0 0 C3 1 3 1 3 1 Z " fill="#2BA9F8" transform="translate(755,663)"/>
<path d="M0 0 C3 1 3 1 3 1 Z " fill="#29ABFC" transform="translate(712,663)"/>
<path d="M0 0 C3 1 3 1 3 1 Z " fill="#2BADFB" transform="translate(699,663)"/>
<path d="M0 0 C3 1 3 1 3 1 Z " fill="#2BABFA" transform="translate(672,663)"/>
<path d="M0 0 C3 1 3 1 3 1 Z " fill="#29ABFB" transform="translate(648,663)"/>
<path d="M0 0 C3 1 3 1 3 1 Z " fill="#2AAAFB" transform="translate(620,663)"/>
<path d="M0 0 C3 1 3 1 3 1 Z " fill="#27ABFA" transform="translate(616,663)"/>
<path d="M0 0 C3 1 3 1 3 1 Z " fill="#28AAFB" transform="translate(603,663)"/>
<path d="M0 0 C3 1 3 1 3 1 Z " fill="#27ABFC" transform="translate(595,663)"/>
<path d="M0 0 C3 1 3 1 3 1 Z " fill="#27A9FA" transform="translate(588,663)"/>
<path d="M0 0 C3 1 3 1 3 1 Z " fill="#29AAFA" transform="translate(580,663)"/>
<path d="M0 0 C3 1 3 1 3 1 Z " fill="#22A6F8" transform="translate(496,663)"/>
<path d="" fill="#249CEF" transform="translate(0,0)"/>
<path d="" fill="#249BEF" transform="translate(0,0)"/>
<path d="" fill="#259DF0" transform="translate(0,0)"/>
<path d="" fill="#249AEE" transform="translate(0,0)"/>
<path d="M0 0 C2 1 2 1 2 1 Z " fill="#2CACF8" transform="translate(694,713)"/>
<path d="M0 0 C2 1 2 1 2 1 Z " fill="#2CADF6" transform="translate(668,713)"/>
<path d="M0 0 C2 1 2 1 2 1 Z " fill="#2AAEF9" transform="translate(650,713)"/>
<path d="M0 0 C2 1 2 1 2 1 Z " fill="#2AACF7" transform="translate(613,713)"/>
<path d="M0 0 C2 1 2 1 2 1 Z " fill="#2AACF7" transform="translate(606,713)"/>
<path d="M0 0 C2 1 2 1 2 1 Z " fill="#29ACF5" transform="translate(598,713)"/>
<path d="M0 0 C2 1 2 1 2 1 Z " fill="#26A9F5" transform="translate(582,713)"/>
<path d="M0 0 C2 1 2 1 2 1 Z " fill="#25ABF7" transform="translate(549,713)"/>
<path d="M0 0 C2 1 2 1 2 1 Z " fill="#2AABF8" transform="translate(523,713)"/>
<path d="M0 0 C2 1 2 1 2 1 Z " fill="#2AABF6" transform="translate(520,713)"/>
<path d="M0 0 C2 1 2 1 2 1 Z " fill="#2BAAF8" transform="translate(752,663)"/>
<path d="M0 0 C2 1 2 1 2 1 Z " fill="#2CAAF9" transform="translate(740,663)"/>
<path d="M0 0 C2 1 2 1 2 1 Z " fill="#28A9FB" transform="translate(736,663)"/>
<path d="M0 0 C2 1 2 1 2 1 Z " fill="#2BABFB" transform="translate(728,663)"/>
<path d="M0 0 C2 1 2 1 2 1 Z " fill="#2BACFA" transform="translate(717,663)"/>
<path d="M0 0 C2 1 2 1 2 1 Z " fill="#28ABFC" transform="translate(696,663)"/>
<path d="M0 0 C2 1 2 1 2 1 Z " fill="#2CACFC" transform="translate(676,663)"/>
<path d="M0 0 C2 1 2 1 2 1 Z " fill="#29ABFB" transform="translate(664,663)"/>
<path d="M0 0 C2 1 2 1 2 1 Z " fill="#29ADFB" transform="translate(656,663)"/>
<path d="M0 0 C2 1 2 1 2 1 Z " fill="#2AABFC" transform="translate(628,663)"/>
<path d="M0 0 C2 1 2 1 2 1 Z " fill="#2AABFA" transform="translate(624,663)"/>
<path d="M0 0 C2 1 2 1 2 1 Z " fill="#28ADFB" transform="translate(608,663)"/>
<path d="M0 0 C2 1 2 1 2 1 Z " fill="#28ABFA" transform="translate(600,663)"/>
<path d="M0 0 C2 1 2 1 2 1 Z " fill="#26ABFC" transform="translate(592,663)"/>
<path d="M0 0 C2 1 2 1 2 1 Z " fill="#27ABFA" transform="translate(584,663)"/>
<path d="M0 0 C2 1 2 1 2 1 Z " fill="#28AAFA" transform="translate(576,663)"/>
<path d="M0 0 C2 1 2 1 2 1 Z " fill="#25A9FA" transform="translate(568,663)"/>
<path d="M0 0 C2 1 2 1 2 1 Z " fill="#25A9FB" transform="translate(552,663)"/>
<path d="M0 0 C2 1 2 1 2 1 Z " fill="#26AAFB" transform="translate(536,663)"/>
<path d="M0 0 C2 1 2 1 2 1 Z " fill="#25A9FB" transform="translate(520,663)"/>
<path d="M0 0 C2 1 2 1 2 1 Z " fill="#24A7FA" transform="translate(512,663)"/>
<path d="M0 0 C2 1 2 1 2 1 Z " fill="#24A6F9" transform="translate(504,663)"/>
<path d="M0 0 C2 1 2 1 2 1 Z " fill="#24A5FA" transform="translate(500,663)"/>
<path d="M0 0 C2 1 2 1 2 1 Z " fill="#24A6FA" transform="translate(492,663)"/>
<path d="M0 0 C2 1 2 1 2 1 Z " fill="#23A6F9" transform="translate(488,663)"/>
<path d="M0 0 C2 1 2 1 2 1 Z " fill="#25A4FA" transform="translate(485,663)"/>
<path d="" fill="#2AA3F1" transform="translate(0,0)"/>
<path d="" fill="#22A4F9" transform="translate(0,0)"/>
<path d="" fill="#249EF1" transform="translate(0,0)"/>
<path d="" fill="#269FF3" transform="translate(0,0)"/>
<path d="M0 0 C2 1 2 1 2 1 Z " fill="#25A5F8" transform="translate(568,327)"/>
<path d="M0 0 C2 1 2 1 2 1 Z " fill="#25A7FB" transform="translate(564,327)"/>
<path d="" fill="#27A2F6" transform="translate(0,0)"/>
<path d="" fill="#26A2F4" transform="translate(0,0)"/>
<path d="" fill="#249BED" transform="translate(0,0)"/>
<path d="" fill="#249DEF" transform="translate(0,0)"/>
<path d="" fill="#269EEF" transform="translate(0,0)"/>
<path d="" fill="#228FDE" transform="translate(0,0)"/>
<path d="" fill="#238CDA" transform="translate(0,0)"/>
<path d="" fill="#228DDC" transform="translate(0,0)"/>
<path d="" fill="#2397E3" transform="translate(0,0)"/>
<path d="" fill="#2494E3" transform="translate(0,0)"/>
<path d="" fill="#208EDF" transform="translate(0,0)"/>
<path d="" fill="#2593E1" transform="translate(0,0)"/>
<path d="" fill="#2191E2" transform="translate(0,0)"/>
<path d="" fill="#258AD4" transform="translate(0,0)"/>
<path d="" fill="#1F92E2" transform="translate(0,0)"/>
<path d="" fill="#238EDA" transform="translate(0,0)"/>
<path d="" fill="#248CD8" transform="translate(0,0)"/>
<path d="" fill="#1D99EF" transform="translate(0,0)"/>
<path d="" fill="#209CF2" transform="translate(0,0)"/>
<path d="" fill="#219BF1" transform="translate(0,0)"/>
<path d="" fill="#1F9DF3" transform="translate(0,0)"/>
<path d="" fill="#239EF4" transform="translate(0,0)"/>
<path d="" fill="#1F9EF4" transform="translate(0,0)"/>
<path d="" fill="#209FF5" transform="translate(0,0)"/>
<path d="" fill="#2397EA" transform="translate(0,0)"/>
<path d="" fill="#1E9FF8" transform="translate(0,0)"/>
<path d="" fill="#1F9DF7" transform="translate(0,0)"/>
<path d="" fill="#20A0F6" transform="translate(0,0)"/>
<path d="" fill="#21A1F3" transform="translate(0,0)"/>
<path d="" fill="#209FF5" transform="translate(0,0)"/>
<path d="" fill="#1D9DF8" transform="translate(0,0)"/>
<path d="" fill="#25A2F1" transform="translate(0,0)"/>
<path d="" fill="#20A2F7" transform="translate(0,0)"/>
<path d="" fill="#1FA1F6" transform="translate(0,0)"/>
<path d="" fill="#1FA2F8" transform="translate(0,0)"/>
<path d="" fill="#229AEE" transform="translate(0,0)"/>
<path d="" fill="#1FA2F9" transform="translate(0,0)"/>
<path d="" fill="#259FF3" transform="translate(0,0)"/>
<path d="" fill="#23A5F6" transform="translate(0,0)"/>
<path d="" fill="#1EA0F6" transform="translate(0,0)"/>
<path d="" fill="#249FF2" transform="translate(0,0)"/>
<path d="" fill="#26A1F5" transform="translate(0,0)"/>
<path d="" fill="#27A4F5" transform="translate(0,0)"/>
<path d="" fill="#21A4F9" transform="translate(0,0)"/>
<path d="" fill="#23A7F7" transform="translate(0,0)"/>
<path d="" fill="#2AA8F5" transform="translate(0,0)"/>
<path d="" fill="#29A7F8" transform="translate(0,0)"/>
<path d="" fill="#25A6F8" transform="translate(0,0)"/>
<path d="" fill="#28A5F6" transform="translate(0,0)"/>
<path d="" fill="#28A9F7" transform="translate(0,0)"/>
<path d="" fill="#2BACF7" transform="translate(0,0)"/>
<path d="" fill="#2BADF7" transform="translate(0,0)"/>
<path d="" fill="#2BABF8" transform="translate(0,0)"/>
<path d="" fill="#2BAAF9" transform="translate(0,0)"/>
<path d="" fill="#2AAEF7" transform="translate(0,0)"/>
<path d="" fill="#2AAEF7" transform="translate(0,0)"/>
<path d="" fill="#2CADF4" transform="translate(0,0)"/>
<path d="" fill="#2BB1F9" transform="translate(0,0)"/>
<path d="" fill="#2AACF9" transform="translate(0,0)"/>
<path d="" fill="#2AAFF8" transform="translate(0,0)"/>
<path d="" fill="#2AABF8" transform="translate(0,0)"/>
<path d="" fill="#2BAFF7" transform="translate(0,0)"/>
<path d="" fill="#29AEF8" transform="translate(0,0)"/>
<path d="" fill="#2AADF8" transform="translate(0,0)"/>
<path d="" fill="#29ABF8" transform="translate(0,0)"/>
<path d="" fill="#27ADF6" transform="translate(0,0)"/>
<path d="" fill="#27ABF8" transform="translate(0,0)"/>
<path d="" fill="#28ABF7" transform="translate(0,0)"/>
<path d="" fill="#28ABF7" transform="translate(0,0)"/>
<path d="" fill="#29AEF7" transform="translate(0,0)"/>
<path d="" fill="#27A6F4" transform="translate(0,0)"/>
<path d="" fill="#26A8F6" transform="translate(0,0)"/>
<path d="" fill="#27ACF5" transform="translate(0,0)"/>
<path d="" fill="#26AAF7" transform="translate(0,0)"/>
<path d="" fill="#26AEF9" transform="translate(0,0)"/>
<path d="" fill="#28A8F5" transform="translate(0,0)"/>
<path d="" fill="#29AAF5" transform="translate(0,0)"/>
<path d="" fill="#22A3F7" transform="translate(0,0)"/>
<path d="" fill="#25A6F9" transform="translate(0,0)"/>
<path d="" fill="#28A5F6" transform="translate(0,0)"/>
<path d="" fill="#1FA4F5" transform="translate(0,0)"/>
<path d="" fill="#20A0F8" transform="translate(0,0)"/>
<path d="" fill="#229AEE" transform="translate(0,0)"/>
<path d="" fill="#249EF2" transform="translate(0,0)"/>
<path d="" fill="#229DEF" transform="translate(0,0)"/>
<path d="" fill="#249DEC" transform="translate(0,0)"/>
<path d="" fill="#20A4F9" transform="translate(0,0)"/>
<path d="" fill="#259BF1" transform="translate(0,0)"/>
<path d="" fill="#259BEF" transform="translate(0,0)"/>
<path d="" fill="#21A4F9" transform="translate(0,0)"/>
<path d="" fill="#23A3FC" transform="translate(0,0)"/>
<path d="" fill="#249BEC" transform="translate(0,0)"/>
<path d="" fill="#2CA9F8" transform="translate(0,0)"/>
<path d="" fill="#29A9F8" transform="translate(0,0)"/>
<path d="" fill="#2CADFB" transform="translate(0,0)"/>
<path d="" fill="#29ACFB" transform="translate(0,0)"/>
<path d="" fill="#2AADFB" transform="translate(0,0)"/>
<path d="" fill="#2BACFA" transform="translate(0,0)"/>
<path d="" fill="#2AACFC" transform="translate(0,0)"/>
<path d="" fill="#2AAAFC" transform="translate(0,0)"/>
<path d="" fill="#2BABFA" transform="translate(0,0)"/>
<path d="" fill="#28ABFB" transform="translate(0,0)"/>
<path d="" fill="#2BABFA" transform="translate(0,0)"/>
<path d="" fill="#26ADFA" transform="translate(0,0)"/>
<path d="" fill="#29ABFB" transform="translate(0,0)"/>
<path d="" fill="#29AAFD" transform="translate(0,0)"/>
<path d="" fill="#26AAFB" transform="translate(0,0)"/>
<path d="" fill="#2BA9FB" transform="translate(0,0)"/>
<path d="" fill="#2AAAFA" transform="translate(0,0)"/>
<path d="" fill="#27A8FB" transform="translate(0,0)"/>
<path d="" fill="#29AAFC" transform="translate(0,0)"/>
<path d="" fill="#26A8FA" transform="translate(0,0)"/>
<path d="" fill="#26ABF9" transform="translate(0,0)"/>
<path d="" fill="#28A9FA" transform="translate(0,0)"/>
<path d="" fill="#26A8F8" transform="translate(0,0)"/>
<path d="" fill="#26A7FA" transform="translate(0,0)"/>
<path d="" fill="#2AA7F6" transform="translate(0,0)"/>
<path d="" fill="#29A7F7" transform="translate(0,0)"/>
<path d="" fill="#2BA5F5" transform="translate(0,0)"/>
<path d="" fill="#249DF0" transform="translate(0,0)"/>
<path d="" fill="#28A0F2" transform="translate(0,0)"/>
<path d="" fill="#2A9EED" transform="translate(0,0)"/>
<path d="" fill="#259DEB" transform="translate(0,0)"/>
<path d="" fill="#229AEE" transform="translate(0,0)"/>
<path d="" fill="#239EEE" transform="translate(0,0)"/>
<path d="" fill="#259DF0" transform="translate(0,0)"/>
<path d="" fill="#2CA1EF" transform="translate(0,0)"/>
<path d="" fill="#259BEF" transform="translate(0,0)"/>
<path d="" fill="#259CF1" transform="translate(0,0)"/>
<path d="" fill="#239BEB" transform="translate(0,0)"/>
<path d="" fill="#28AAFC" transform="translate(0,0)"/>
<path d="" fill="#29AAFD" transform="translate(0,0)"/>
<path d="" fill="#24A6F9" transform="translate(0,0)"/>
<path d="" fill="#2AA2F0" transform="translate(0,0)"/>
<path d="" fill="#24A6F8" transform="translate(0,0)"/>
<path d="" fill="#29A3F5" transform="translate(0,0)"/>
<path d="" fill="#26A8FB" transform="translate(0,0)"/>
<path d="" fill="#22A4F8" transform="translate(0,0)"/>
<path d="" fill="#29A4F2" transform="translate(0,0)"/>
<path d="" fill="#23A7F9" transform="translate(0,0)"/>
<path d="" fill="#249EEE" transform="translate(0,0)"/>
<path d="" fill="#29A3F0" transform="translate(0,0)"/>
<path d="" fill="#22A6FB" transform="translate(0,0)"/>
<path d="" fill="#239AEE" transform="translate(0,0)"/>
<path d="" fill="#28A1F2" transform="translate(0,0)"/>
<path d="" fill="#26A9FA" transform="translate(0,0)"/>
<path d="" fill="#23A7FB" transform="translate(0,0)"/>
<path d="" fill="#21A5FA" transform="translate(0,0)"/>
<path d="" fill="#24A5FA" transform="translate(0,0)"/>
<path d="" fill="#239DEE" transform="translate(0,0)"/>
<path d="" fill="#1CA2F8" transform="translate(0,0)"/>
<path d="" fill="#249EEB" transform="translate(0,0)"/>
<path d="" fill="#249DF0" transform="translate(0,0)"/>
<path d="" fill="#249DEE" transform="translate(0,0)"/>
<path d="" fill="#2497E8" transform="translate(0,0)"/>
<path d="" fill="#29A1EF" transform="translate(0,0)"/>
<path d="" fill="#2AA1EF" transform="translate(0,0)"/>
<path d="" fill="#27A1F2" transform="translate(0,0)"/>
<path d="" fill="#2AA2F5" transform="translate(0,0)"/>
<path d="" fill="#22A4F5" transform="translate(0,0)"/>
<path d="" fill="#1FA5FA" transform="translate(0,0)"/>
<path d="" fill="#22A7F7" transform="translate(0,0)"/>
<path d="" fill="#22A3F9" transform="translate(0,0)"/>
<path d="" fill="#259CED" transform="translate(0,0)"/>
<path d="" fill="#23A6F9" transform="translate(0,0)"/>
<path d="" fill="#209FF6" transform="translate(0,0)"/>
<path d="" fill="#24A5F9" transform="translate(0,0)"/>
<path d="" fill="#23A4F7" transform="translate(0,0)"/>
<path d="" fill="#249EEF" transform="translate(0,0)"/>
<path d="" fill="#24A7F9" transform="translate(0,0)"/>
<path d="" fill="#26A4F1" transform="translate(0,0)"/>
<path d="" fill="#25A5F6" transform="translate(0,0)"/>
<path d="" fill="#23A3F7" transform="translate(0,0)"/>
<path d="" fill="#24A4F7" transform="translate(0,0)"/>
<path d="" fill="#22A4FA" transform="translate(0,0)"/>
<path d="" fill="#229AED" transform="translate(0,0)"/>
<path d="" fill="#259BEC" transform="translate(0,0)"/>
<path d="" fill="#259CED" transform="translate(0,0)"/>
<path d="" fill="#27A2F1" transform="translate(0,0)"/>
<path d="" fill="#279DEE" transform="translate(0,0)"/>
<path d="" fill="#27A1F3" transform="translate(0,0)"/>
<path d="" fill="#249CF0" transform="translate(0,0)"/>
<path d="" fill="#26A2F3" transform="translate(0,0)"/>
<path d="" fill="#25A3F3" transform="translate(0,0)"/>
<path d="" fill="#26A2F3" transform="translate(0,0)"/>
<path d="" fill="#26A3F0" transform="translate(0,0)"/>
<path d="" fill="#24A0F3" transform="translate(0,0)"/>
<path d="" fill="#24A1F1" transform="translate(0,0)"/>
<path d="" fill="#28A3F3" transform="translate(0,0)"/>
<path d="" fill="#26A0F1" transform="translate(0,0)"/>
<path d="" fill="#239AEB" transform="translate(0,0)"/>
<path d="" fill="#26A1F3" transform="translate(0,0)"/>
<path d="" fill="#269CEF" transform="translate(0,0)"/>
<path d="" fill="#27A4F4" transform="translate(0,0)"/>
<path d="" fill="#269DF2" transform="translate(0,0)"/>
<path d="" fill="#249EF0" transform="translate(0,0)"/>
<path d="" fill="#259DEE" transform="translate(0,0)"/>
<path d="" fill="#28A2F1" transform="translate(0,0)"/>
<path d="" fill="#27A0F0" transform="translate(0,0)"/>
<path d="" fill="#25A0F3" transform="translate(0,0)"/>
<path d="" fill="#27A0F4" transform="translate(0,0)"/>
<path d="" fill="#259DED" transform="translate(0,0)"/>
<path d="" fill="#269FF2" transform="translate(0,0)"/>
<path d="" fill="#269BEC" transform="translate(0,0)"/>
<path d="" fill="#259DEC" transform="translate(0,0)"/>
<path d="" fill="#269FEF" transform="translate(0,0)"/>
<path d="" fill="#28A1EE" transform="translate(0,0)"/>
<path d="" fill="#26A0EB" transform="translate(0,0)"/>
</svg>
